<?xml version="1.0" encoding="utf-8"?>
<!-- Generator: Adobe Illustrator 15.0.0, SVG Export Plug-In . SVG Version: 6.00 Build 0)  -->
<!DOCTYPE svg PUBLIC "-//W3C//DTD SVG 1.1//EN" "http://www.w3.org/Graphics/SVG/1.1/DTD/svg11.dtd">
<svg version="1.1" id="Слой_1" xmlns="http://www.w3.org/2000/svg" xmlns:xlink="http://www.w3.org/1999/xlink" x="0px" y="0px"
	 width="96px" height="96px" viewBox="0 0 96 96" enable-background="new 0 0 96 96" xml:space="preserve">
<g>
	<rect fill="none" width="96" height="96"/>
</g>
<path fill-opacity="0.4" d="M88,48c0,29.635-10.363,40-40,40C18.365,88,8,77.635,8,48C8,18.367,18.365,8,48,8
	C77.637,8,88,18.367,88,48z"/>
<linearGradient id="SVGID_1_" gradientUnits="userSpaceOnUse" x1="39.6606" y1="66.2295" x2="39.6606" y2="-11.6436" gradientTransform="matrix(1 0 0 -1 8.3398 72.04)">
	<stop  offset="0" style="stop-color:#A7B7C2"/>
	<stop  offset="1" style="stop-color:#555E70"/>
</linearGradient>
<path fill="url(#SVGID_1_)" d="M88,47c0,29.635-10.363,40-40,40C18.365,87,8,76.635,8,47C8,17.367,18.365,7,48,7
	C77.637,7,88,17.367,88,47z"/>
<linearGradient id="SVGID_2_" gradientUnits="userSpaceOnUse" x1="70.5" y1="86.8896" x2="70.5" y2="7.1118">
	<stop  offset="0" style="stop-color:#4A4B4D"/>
	<stop  offset="1" style="stop-color:#AFB1B3"/>
</linearGradient>
<path fill="url(#SVGID_2_)" d="M53,86.89C78.807,85.717,88,74.9,88,47c0-27.904-9.193-38.718-35-39.889V86.89z"/>
<path fill="#FFFFFF" fill-opacity="0.3" d="M54,7.17c-0.334-0.02-0.66-0.043-1-0.059V86.89c0.34-0.017,0.666-0.039,1-0.06V7.17z"/>
<path fill-opacity="0.05" d="M53,86.89V7.111c-0.656-0.028-1.322-0.053-2-0.069v79.917C51.678,86.941,52.344,86.918,53,86.89z"/>
<path fill-opacity="0.2" d="M53,86.89V7.111c-0.328-0.014-0.666-0.022-1-0.034v79.847C52.334,86.912,52.672,86.903,53,86.89z"/>
<path fill-opacity="0.2" d="M73.587,74.124c-0.55,0-1-0.45-1-1v-8.752c0-0.55,0.45-1,1-1h1c0.55,0,1,0.45,1,1v8.752
	c0,0.55-0.45,1-1,1H73.587z"/>
<path fill-opacity="0.2" d="M63.587,74.124c-0.55,0-1-0.45-1-1v-8.752c0-0.55,0.45-1,1-1h5c0.55,0,1,0.45,1,1v8.752
	c0,0.55-0.45,1-1,1H63.587z"/>
<path fill-opacity="0.2" d="M41.34,56.678L21.78,67.762c-0.957,0.543-0.957,1.43,0,1.973l19.56,11.082
	c0.956,0.543,1.739,0.086,1.739-1.014v-5.68h14.358c0.551,0,1-0.449,1-1v-8.751c0-0.55-0.449-1-1-1H43.079v-5.68
	C43.079,56.592,42.296,56.137,41.34,56.678z"/>
<linearGradient id="SVGID_3_" gradientUnits="userSpaceOnUse" x1="32.8867" y1="32.2173" x2="8.291" y2="32.2173" gradientTransform="matrix(4.489659e-011 -1 -1 -4.489659e-011 71.1162 88.2324)">
	<stop  offset="0" style="stop-color:#FFFFFF"/>
	<stop  offset="0.0307" style="stop-color:#FFFFFF"/>
	<stop  offset="0.4969" style="stop-color:#FAFCEF"/>
	<stop  offset="1" style="stop-color:#D0CBC5"/>
</linearGradient>
<path fill="url(#SVGID_3_)" d="M42.229,56.692v5.68h14.358c0.55,0,1,0.45,1,1v8.752c0,0.55-0.45,1-1,1H42.229v5.679
	c0,1.1-0.783,1.557-1.74,1.014L20.929,68.734c-0.957-0.543-0.957-1.43,0-1.973l19.559-11.084
	C41.445,55.137,42.229,55.592,42.229,56.692z"/>
<path fill-opacity="0.05" d="M40.488,55.678L20.93,66.762c-0.957,0.543-0.957,1.43,0,1.973l19.558,11.082
	c0.845,0.479,1.552,0.178,1.707-0.656L23.794,68.734c-0.957-0.543-0.957-1.43,0-1.973l18.401-10.428
	C42.04,55.502,41.333,55.2,40.488,55.678z"/>
<path fill-opacity="0.2" d="M40.488,55.678L20.93,66.762c-0.957,0.543-0.957,1.43,0,1.973l19.558,11.082
	c0.068,0.039,0.137,0.065,0.203,0.095c0.236-0.143,0.406-0.395,0.474-0.751L22.764,68.734c-0.957-0.543-0.957-1.43,0-1.973
	l18.401-10.428c-0.065-0.355-0.237-0.607-0.473-0.75C40.625,55.613,40.557,55.639,40.488,55.678z"/>
<path fill-opacity="0.2" d="M21.257,67.748c0.035-0.031,0.089-0.072,0.166-0.115l19.559-11.084c0.097-0.055,0.171-0.08,0.219-0.092
	c0.016,0.047,0.027,0.124,0.027,0.235v5.68v1h1h14.359v8.752H42.229h-1v1v5.679c0,0.11-0.016,0.188-0.028,0.234
	c-0.048-0.011-0.122-0.035-0.219-0.092L21.422,67.863C21.346,67.82,21.292,67.78,21.257,67.748 M20.212,67.748
	c0,0.357,0.239,0.715,0.718,0.986l19.558,11.082c0.957,0.543,1.74,0.086,1.74-1.014v-5.68h14.358c0.55,0,1-0.449,1-1v-8.751
	c0-0.55-0.45-1-1-1H42.229v-5.68c0-1.101-0.783-1.556-1.74-1.015L20.93,66.762C20.451,67.033,20.212,67.391,20.212,67.748
	L20.212,67.748z"/>
<linearGradient id="SVGID_4_" gradientUnits="userSpaceOnUse" x1="213.9063" y1="48.0288" x2="203.1543" y2="48.0288" gradientTransform="matrix(-1.346898e-010 1 1 1.346898e-010 25.0576 -140.7363)">
	<stop  offset="0" style="stop-color:#D0CBC5"/>
	<stop  offset="0.5031" style="stop-color:#FAFCEF"/>
	<stop  offset="0.9693" style="stop-color:#FFFFFF"/>
	<stop  offset="1" style="stop-color:#FFFFFF"/>
</linearGradient>
<path fill="url(#SVGID_4_)" d="M72.587,73.124c-0.55,0-1-0.45-1-1v-8.752c0-0.55,0.45-1,1-1h1c0.55,0,1,0.45,1,1v8.752
	c0,0.55-0.45,1-1,1H72.587z"/>
<linearGradient id="SVGID_5_" gradientUnits="userSpaceOnUse" x1="213.9063" y1="40.0293" x2="203.1543" y2="40.0293" gradientTransform="matrix(-1.346898e-010 1 1 1.346898e-010 25.0576 -140.7363)">
	<stop  offset="0" style="stop-color:#D0CBC5"/>
	<stop  offset="0.5031" style="stop-color:#FAFCEF"/>
	<stop  offset="0.9693" style="stop-color:#FFFFFF"/>
	<stop  offset="1" style="stop-color:#FFFFFF"/>
</linearGradient>
<path fill="url(#SVGID_5_)" d="M62.587,73.124c-0.55,0-1-0.45-1-1v-8.752c0-0.55,0.45-1,1-1h5c0.55,0,1,0.45,1,1v8.752
	c0,0.55-0.45,1-1,1H62.587z"/>
<g>
	<path fill-opacity="0.2" d="M67.587,62.372h-5c-0.55,0-1,0.45-1,1v8.751c0,0.551,0.45,1,1,1h5c0.55,0,1-0.449,1-1v-8.751
		C68.587,62.822,68.137,62.372,67.587,62.372z M67.587,72.124h-5v-8.753h5V72.124z"/>
</g>
<g>
	<path fill-opacity="0.2" d="M73.587,62.372h-1c-0.55,0-1,0.45-1,1v8.751c0,0.551,0.45,1,1,1h1c0.55,0,1-0.449,1-1v-8.751
		C74.587,62.822,74.137,62.372,73.587,62.372z M73.587,72.124h-1v-8.753h1V72.124z"/>
</g>
<linearGradient id="SVGID_6_" gradientUnits="userSpaceOnUse" x1="39.6606" y1="64.7871" x2="39.6606" y2="-14.4575" gradientTransform="matrix(1 0 0 -1 8.3398 72.04)">
	<stop  offset="0" style="stop-color:#FFFFFF"/>
	<stop  offset="1" style="stop-color:#FFFFFF;stop-opacity:0"/>
</linearGradient>
<path fill="url(#SVGID_6_)" fill-opacity="0.25" d="M48,7C18.365,7,8,17.367,8,47c0,29.635,10.365,40,40,40
	c29.637,0,40-10.365,40-40C88,17.367,77.637,7,48,7z M48,86C18.842,86,9,76.158,9,47S18.842,8,48,8s39,9.842,39,39S77.158,86,48,86z
	"/>
<path fill-opacity="0.15" d="M21.017,50.904c-1.663,0-2.917-1.333-2.917-3.099V29.404c0-1.767,1.253-3.099,2.917-3.099h0.35v-1.879
	c-0.249-2.635,0.737-8.114,6.269-9.478c0.076-0.019,1.865-0.449,4.426-0.449c0.154,0,0.312,0.001,0.472,0.005
	c0.124-0.004,0.277-0.004,0.429-0.004c2.635,0,4.428,0.448,4.447,0.452c5.518,1.359,6.504,6.839,6.254,9.547l0.003,1.806h0.134
	c1.71,0,3.101,1.39,3.101,3.099v18.401c0,1.708-1.391,3.099-3.101,3.099H21.017z M33.25,43.362v-4.417
	c0-0.284,0.151-0.549,0.397-0.69c0.712-0.416,1.136-1.145,1.136-1.95c0-1.25-1.016-2.266-2.266-2.266
	c-1.25,0-2.267,1.016-2.267,2.266c0,0.808,0.424,1.537,1.135,1.95c0.247,0.144,0.397,0.407,0.397,0.691v4.416H33.25z M38.62,26.306
	l0.005-2.151c0.04-0.438,0.277-3.631-2.436-4.298c-0.026-0.008-0.051-0.016-0.076-0.023l0,0c-0.019,0-1.202-0.27-2.936-0.291
	c-0.058,0.014-0.117,0.021-0.177,0.021c-0.011,0-0.02,0-0.03-0.001c-0.162-0.007-0.311-0.008-0.465-0.01
	c-0.142,0.002-0.286,0.003-0.441,0.01c-0.013,0-0.024,0.001-0.036,0.001c-0.062,0-0.123-0.008-0.182-0.021
	c-1.706,0.024-2.879,0.282-3.012,0.312c-2.697,0.666-2.466,3.87-2.431,4.234l0.012,0.21l0.001,2.006L38.62,26.306L38.62,26.306z"/>
<path fill-opacity="0.3" d="M43.8,27.905h-0.934v-2.679c0.234-2.527-0.647-7.466-5.655-8.698c-0.085-0.021-1.985-0.479-4.694-0.424
	c-2.707-0.056-4.611,0.402-4.689,0.422c-5.016,1.234-5.896,6.173-5.66,8.7v2.679h-1.15c-1.267,0-2.117,1.037-2.117,2.299v18.401
	c0,1.265,0.851,2.299,2.117,2.299H43.8c1.265,0,2.301-1.034,2.301-2.299V30.204C46.101,28.942,45.064,27.905,43.8,27.905z
	 M34.05,39.746v5.216h-3.067v-5.215c-0.914-0.531-1.533-1.509-1.533-2.643c0-1.693,1.372-3.065,3.066-3.065
	c1.688,0,3.066,1.372,3.066,3.065C35.583,38.235,34.96,39.214,34.05,39.746z M39.425,24.958l-0.006,2.948H25.617v-2.766
	l-0.009-0.173c-0.042-0.435-0.312-4.263,3.046-5.091c0.015-0.003,1.381-0.325,3.375-0.334v0.022c0.167-0.008,0.32-0.01,0.482-0.011
	c0.163,0.001,0.322,0.003,0.494,0.011v-0.022c1.993,0.005,3.359,0.331,3.376,0.337C39.737,20.704,39.468,24.532,39.425,24.958z"/>
<linearGradient id="SVGID_7_" gradientUnits="userSpaceOnUse" x1="24.1606" y1="21.9355" x2="24.1606" y2="56.7407" gradientTransform="matrix(1 0 0 -1 8.3398 72.04)">
	<stop  offset="0" style="stop-color:#D0CBC5"/>
	<stop  offset="0.5031" style="stop-color:#FAFCEF"/>
	<stop  offset="0.9693" style="stop-color:#FFFFFF"/>
	<stop  offset="1" style="stop-color:#FFFFFF"/>
</linearGradient>
<path fill="url(#SVGID_7_)" d="M43.8,27.105h-0.934v-2.679c0.234-2.527-0.647-7.466-5.655-8.699
	c-0.085-0.021-1.985-0.478-4.694-0.423c-2.707-0.056-4.611,0.402-4.689,0.422c-5.016,1.234-5.896,6.173-5.66,8.7v2.679h-1.15
	c-1.267,0-2.117,1.036-2.117,2.299v18.401c0,1.265,0.851,2.299,2.117,2.299H43.8c1.265,0,2.301-1.034,2.301-2.299V29.404
	C46.101,28.142,45.064,27.105,43.8,27.105z M34.05,38.946v5.216h-3.067v-5.216c-0.914-0.531-1.533-1.508-1.533-2.642
	c0-1.693,1.372-3.065,3.066-3.065c1.688,0,3.066,1.372,3.066,3.065C35.583,37.436,34.96,38.414,34.05,38.946z M39.425,24.157
	l-0.006,2.949H25.617v-2.766l-0.009-0.173c-0.042-0.434-0.312-4.263,3.046-5.091c0.015-0.003,1.381-0.326,3.375-0.334v0.022
	c0.167-0.008,0.32-0.01,0.482-0.011c0.163,0.001,0.322,0.003,0.494,0.011v-0.022c1.993,0.004,3.359,0.331,3.376,0.336
	C39.737,19.904,39.468,23.732,39.425,24.157z"/>
<path fill="#FFFFFF" d="M30.983,44.962h3.067v-0.8h-3.067V44.962z M25.617,24.34l-0.009-0.173c-0.003-0.027-0.006-0.068-0.009-0.121
	c-0.027,0.461-0.001,0.809,0.009,0.921l0.009,0.173V24.34z M18.9,29.404v0.8c0-1.262,0.851-2.299,2.117-2.299h1.15v-0.8h-1.15
	C19.75,27.105,18.9,28.142,18.9,29.404z M30.983,38.946c-0.79-0.459-1.357-1.253-1.498-2.191c-0.014,0.117-0.035,0.229-0.035,0.351
	c0,1.134,0.619,2.11,1.533,2.642V38.946z M43.8,27.105h-0.934v0.8H43.8c1.265,0,2.301,1.037,2.301,2.299v-0.8
	C46.101,28.142,45.064,27.105,43.8,27.105z M34.05,38.946v0.8c0.911-0.532,1.533-1.511,1.533-2.642c0-0.12-0.021-0.233-0.036-0.35
	C35.407,37.692,34.837,38.485,34.05,38.946z M37.211,15.728c-0.085-0.021-1.985-0.478-4.694-0.423
	c-2.707-0.056-4.611,0.402-4.689,0.422c-4.782,1.178-5.802,5.716-5.684,8.326c0.113-2.65,1.361-6.462,5.684-7.526
	c0.08-0.02,1.983-0.479,4.689-0.422c2.709-0.053,4.609,0.402,4.694,0.424c4.318,1.063,5.565,4.877,5.679,7.527
	C43.007,21.446,41.987,16.905,37.211,15.728z M39.425,24.157l-0.006,2.949H25.617v0.8h13.802l0.007-2.948
	c0.011-0.112,0.036-0.457,0.01-0.918C39.432,24.091,39.429,24.13,39.425,24.157z"/>
<path fill-opacity="0.15" d="M79.802,25.723c1.71,0,3.101,1.39,3.101,3.099l-0.001,18.984c0,1.708-1.391,3.099-3.101,3.099H61.018
	c-1.663,0-2.918-1.333-2.918-3.099l0.001-18.984c0-1.767,1.254-3.099,2.918-3.099H79.802z"/>
<path fill-opacity="0.3" d="M61.199,27.723c-1.265,0-2.299,0.85-2.299,2.117v18.966c0,1.265,0.85,2.299,2.117,2.299H79.8
	c1.265,0,2.301-1.034,2.301-2.299V30.023c0-1.265-1.034-2.301-2.299-2.301H61.199z"/>
<linearGradient id="SVGID_8_" gradientUnits="userSpaceOnUse" x1="70.041" y1="24.2637" x2="70.041" y2="47.6455" gradientTransform="matrix(1 0 0 1 0.459 2.459)">
	<stop  offset="0" style="stop-color:#FFFFFF"/>
	<stop  offset="0.0307" style="stop-color:#FFFFFF"/>
	<stop  offset="0.4969" style="stop-color:#FAFCEF"/>
	<stop  offset="1" style="stop-color:#D0CBC5"/>
</linearGradient>
<path fill="url(#SVGID_8_)" d="M61.199,26.723c-1.265,0-2.299,0.85-2.299,2.117v18.966c0,1.265,0.85,2.299,2.117,2.299H79.8
	c1.265,0,2.301-1.034,2.301-2.299V29.023c0-1.265-1.034-2.301-2.299-2.301H61.199z"/>
<g>
	<rect x="157" y="1" fill="none" width="96" height="96"/>
</g>
<path fill-opacity="0.4" d="M245,49c0,29.635-10.363,40-40,40c-29.635,0-40-10.365-40-40c0-29.633,10.365-40,40-40
	C234.637,9,245,19.367,245,49z"/>
<linearGradient id="SVGID_9_" gradientUnits="userSpaceOnUse" x1="196.6602" y1="65.2295" x2="196.6602" y2="-12.6436" gradientTransform="matrix(1 0 0 -1 8.3398 72.04)">
	<stop  offset="0" style="stop-color:#A1B2C0"/>
	<stop  offset="1" style="stop-color:#3D465B"/>
</linearGradient>
<path fill="url(#SVGID_9_)" d="M245,48c0,29.635-10.363,40-40,40c-29.635,0-40-10.365-40-40c0-29.633,10.365-40,40-40
	C234.637,8,245,18.367,245,48z"/>
<linearGradient id="SVGID_10_" gradientUnits="userSpaceOnUse" x1="227.5" y1="87.8896" x2="227.5" y2="8.1118">
	<stop  offset="0" style="stop-color:#4A4B4D"/>
	<stop  offset="1" style="stop-color:#AFB1B3"/>
</linearGradient>
<path fill="url(#SVGID_10_)" d="M210,87.89C235.807,86.717,245,75.9,245,48c0-27.904-9.193-38.718-35-39.889V87.89z"/>
<path fill="#FFFFFF" fill-opacity="0.3" d="M211,8.17c-0.334-0.02-0.66-0.043-1-0.059V87.89c0.34-0.017,0.666-0.039,1-0.06V8.17z"/>
<path fill-opacity="0.05" d="M210,87.89V8.111c-0.656-0.028-1.322-0.053-2-0.069v79.917C208.678,87.941,209.344,87.918,210,87.89z"
	/>
<path fill-opacity="0.2" d="M210,87.89V8.111c-0.328-0.014-0.666-0.022-1-0.034v79.847C209.334,87.912,209.672,87.903,210,87.89z"/>
<path fill-opacity="0.2" d="M230.587,75.124c-0.55,0-1-0.45-1-1v-8.752c0-0.55,0.45-1,1-1h1c0.55,0,1,0.45,1,1v8.752
	c0,0.55-0.45,1-1,1H230.587z"/>
<path fill-opacity="0.2" d="M220.587,75.124c-0.55,0-1-0.45-1-1v-8.752c0-0.55,0.45-1,1-1h5c0.55,0,1,0.45,1,1v8.752
	c0,0.55-0.45,1-1,1H220.587z"/>
<path fill-opacity="0.2" d="M198.34,57.678l-19.56,11.084c-0.957,0.543-0.957,1.43,0,1.973l19.56,11.082
	c0.956,0.543,1.739,0.086,1.739-1.014v-5.68h14.358c0.551,0,1-0.449,1-1v-8.751c0-0.55-0.449-1-1-1h-14.358v-5.68
	C200.079,57.592,199.296,57.137,198.34,57.678z"/>
<linearGradient id="SVGID_11_" gradientUnits="userSpaceOnUse" x1="31.8862" y1="-124.7832" x2="7.2905" y2="-124.7832" gradientTransform="matrix(4.489659e-011 -1 -1 -4.489659e-011 71.1162 88.2324)">
	<stop  offset="0" style="stop-color:#FFFFFF"/>
	<stop  offset="0.0307" style="stop-color:#FFFFFF"/>
	<stop  offset="0.4969" style="stop-color:#FAFCEF"/>
	<stop  offset="1" style="stop-color:#D0CBC5"/>
</linearGradient>
<path fill="url(#SVGID_11_)" d="M199.229,57.692v5.68h14.358c0.55,0,1,0.45,1,1v8.752c0,0.55-0.45,1-1,1h-14.358v5.679
	c0,1.1-0.783,1.557-1.74,1.014L177.93,69.734c-0.957-0.543-0.957-1.43,0-1.973l19.559-11.084
	C198.445,56.137,199.229,56.592,199.229,57.692z"/>
<path fill-opacity="0.05" d="M197.488,56.678L177.93,67.762c-0.957,0.543-0.957,1.43,0,1.973l19.559,11.082
	c0.845,0.479,1.552,0.178,1.707-0.656l-18.401-10.426c-0.957-0.543-0.957-1.43,0-1.973l18.401-10.428
	C199.04,56.502,198.333,56.2,197.488,56.678z"/>
<path fill-opacity="0.2" d="M197.488,56.678L177.93,67.762c-0.957,0.543-0.957,1.43,0,1.973l19.559,11.082
	c0.068,0.039,0.137,0.065,0.203,0.095c0.236-0.143,0.406-0.395,0.474-0.751l-18.401-10.426c-0.957-0.543-0.957-1.43,0-1.973
	l18.401-10.428c-0.065-0.355-0.237-0.607-0.473-0.75C197.625,56.613,197.557,56.639,197.488,56.678z"/>
<path fill-opacity="0.2" d="M178.258,68.748c0.034-0.031,0.088-0.072,0.166-0.115l19.559-11.084c0.097-0.055,0.171-0.08,0.219-0.092
	c0.016,0.047,0.027,0.124,0.027,0.235v5.68v1h1h14.359v8.752h-14.359h-1v1v5.679c0,0.11-0.016,0.188-0.028,0.234
	c-0.048-0.011-0.122-0.035-0.219-0.092l-19.56-11.082C178.346,68.82,178.292,68.78,178.258,68.748 M177.212,68.748
	c0,0.357,0.239,0.715,0.718,0.986l19.559,11.082c0.957,0.543,1.74,0.086,1.74-1.014v-5.68h14.358c0.55,0,1-0.449,1-1v-8.751
	c0-0.55-0.45-1-1-1h-14.358v-5.68c0-1.101-0.783-1.556-1.74-1.015L177.93,67.762C177.451,68.033,177.212,68.391,177.212,68.748
	L177.212,68.748z"/>
<linearGradient id="SVGID_12_" gradientUnits="userSpaceOnUse" x1="214.9063" y1="205.0293" x2="204.1543" y2="205.0293" gradientTransform="matrix(-1.346898e-010 1 1 1.346898e-010 25.0576 -140.7363)">
	<stop  offset="0" style="stop-color:#D0CBC5"/>
	<stop  offset="0.5031" style="stop-color:#FAFCEF"/>
	<stop  offset="0.9693" style="stop-color:#FFFFFF"/>
	<stop  offset="1" style="stop-color:#FFFFFF"/>
</linearGradient>
<path fill="url(#SVGID_12_)" d="M229.587,74.124c-0.55,0-1-0.45-1-1v-8.752c0-0.55,0.45-1,1-1h1c0.55,0,1,0.45,1,1v8.752
	c0,0.55-0.45,1-1,1H229.587z"/>
<linearGradient id="SVGID_13_" gradientUnits="userSpaceOnUse" x1="214.9063" y1="197.0293" x2="204.1543" y2="197.0293" gradientTransform="matrix(-1.346898e-010 1 1 1.346898e-010 25.0576 -140.7363)">
	<stop  offset="0" style="stop-color:#D0CBC5"/>
	<stop  offset="0.5031" style="stop-color:#FAFCEF"/>
	<stop  offset="0.9693" style="stop-color:#FFFFFF"/>
	<stop  offset="1" style="stop-color:#FFFFFF"/>
</linearGradient>
<path fill="url(#SVGID_13_)" d="M219.587,74.124c-0.55,0-1-0.45-1-1v-8.752c0-0.55,0.45-1,1-1h5c0.55,0,1,0.45,1,1v8.752
	c0,0.55-0.45,1-1,1H219.587z"/>
<g>
	<path fill-opacity="0.2" d="M224.587,63.372h-5c-0.55,0-1,0.45-1,1v8.751c0,0.551,0.45,1,1,1h5c0.55,0,1-0.449,1-1v-8.751
		C225.587,63.822,225.137,63.372,224.587,63.372z M224.587,73.124h-5v-8.753h5V73.124z"/>
</g>
<g>
	<path fill-opacity="0.2" d="M230.587,63.372h-1c-0.55,0-1,0.45-1,1v8.751c0,0.551,0.45,1,1,1h1c0.55,0,1-0.449,1-1v-8.751
		C231.587,63.822,231.137,63.372,230.587,63.372z M230.587,73.124h-1v-8.753h1V73.124z"/>
</g>
<linearGradient id="SVGID_14_" gradientUnits="userSpaceOnUse" x1="196.6602" y1="63.7871" x2="196.6602" y2="-15.4575" gradientTransform="matrix(1 0 0 -1 8.3398 72.04)">
	<stop  offset="0" style="stop-color:#FFFFFF"/>
	<stop  offset="1" style="stop-color:#FFFFFF;stop-opacity:0"/>
</linearGradient>
<path fill="url(#SVGID_14_)" fill-opacity="0.25" d="M205,8c-29.635,0-40,10.367-40,40c0,29.635,10.365,40,40,40
	c29.637,0,40-10.365,40-40C245,18.367,234.637,8,205,8z M205,87c-29.158,0-39-9.842-39-39s9.842-39,39-39s39,9.842,39,39
	S234.158,87,205,87z"/>
<path fill-opacity="0.15" d="M178.018,51.904c-1.663,0-2.918-1.333-2.918-3.099V30.404c0-1.767,1.254-3.099,2.918-3.099h0.35v-1.879
	c-0.248-2.635,0.736-8.114,6.27-9.478c0.076-0.019,1.864-0.449,4.426-0.449c0.154,0,0.311,0.001,0.471,0.005
	c0.125-0.004,0.277-0.004,0.43-0.004c2.635,0,4.428,0.448,4.447,0.452c5.518,1.359,6.504,6.839,6.254,9.547l0.003,1.806h0.134
	c1.71,0,3.101,1.39,3.101,3.099v18.401c0,1.708-1.391,3.099-3.101,3.099H178.018z M190.25,44.362v-4.417
	c0-0.284,0.15-0.549,0.396-0.69c0.713-0.416,1.137-1.145,1.137-1.95c0-1.25-1.017-2.266-2.266-2.266
	c-1.25,0-2.268,1.016-2.268,2.266c0,0.808,0.424,1.537,1.136,1.95c0.247,0.144,0.397,0.407,0.397,0.691v4.416H190.25z
	 M195.62,27.306l0.005-2.151c0.04-0.438,0.277-3.631-2.436-4.298c-0.027-0.008-0.052-0.016-0.076-0.023l0,0
	c-0.02,0-1.202-0.27-2.937-0.291c-0.058,0.014-0.117,0.021-0.177,0.021c-0.011,0-0.02,0-0.03-0.001
	c-0.161-0.007-0.312-0.008-0.465-0.01c-0.142,0.002-0.286,0.003-0.441,0.01c-0.013,0-0.024,0.001-0.036,0.001
	c-0.062,0-0.123-0.008-0.182-0.021c-1.707,0.024-2.88,0.282-3.012,0.312c-2.697,0.666-2.467,3.87-2.432,4.234l0.012,0.21
	l0.002,2.006L195.62,27.306L195.62,27.306z"/>
<path fill-opacity="0.3" d="M200.8,28.905h-0.934v-2.679c0.234-2.527-0.647-7.466-5.655-8.698c-0.085-0.021-1.984-0.479-4.693-0.424
	c-2.707-0.056-4.611,0.402-4.689,0.422c-5.016,1.234-5.896,6.173-5.66,8.7v2.679h-1.15c-1.268,0-2.117,1.037-2.117,2.299v18.401
	c0,1.265,0.85,2.299,2.117,2.299H200.8c1.265,0,2.301-1.034,2.301-2.299V31.204C203.101,29.942,202.064,28.905,200.8,28.905z
	 M191.051,40.746v5.216h-3.067v-5.215c-0.913-0.531-1.532-1.509-1.532-2.643c0-1.693,1.371-3.065,3.066-3.065
	c1.688,0,3.065,1.372,3.065,3.065C192.583,39.235,191.961,40.214,191.051,40.746z M196.425,25.958l-0.006,2.948h-13.802v-2.766
	l-0.01-0.173c-0.041-0.435-0.311-4.263,3.047-5.091c0.015-0.003,1.381-0.325,3.375-0.334v0.022c0.166-0.008,0.32-0.01,0.482-0.011
	c0.162,0.001,0.322,0.003,0.494,0.011v-0.022c1.992,0.005,3.358,0.331,3.375,0.337C196.737,21.704,196.468,25.532,196.425,25.958z"
	/>
<linearGradient id="SVGID_15_" gradientUnits="userSpaceOnUse" x1="181.1602" y1="20.9355" x2="181.1602" y2="55.7407" gradientTransform="matrix(1 0 0 -1 8.3398 72.04)">
	<stop  offset="0" style="stop-color:#D0CBC5"/>
	<stop  offset="0.5031" style="stop-color:#FAFCEF"/>
	<stop  offset="0.9693" style="stop-color:#FFFFFF"/>
	<stop  offset="1" style="stop-color:#FFFFFF"/>
</linearGradient>
<path fill="url(#SVGID_15_)" d="M200.8,28.105h-0.934v-2.679c0.234-2.527-0.647-7.466-5.655-8.699
	c-0.085-0.021-1.984-0.478-4.693-0.423c-2.707-0.056-4.611,0.402-4.689,0.422c-5.016,1.234-5.896,6.173-5.66,8.7v2.679h-1.15
	c-1.268,0-2.117,1.036-2.117,2.299v18.401c0,1.265,0.85,2.299,2.117,2.299H200.8c1.265,0,2.301-1.034,2.301-2.299V30.404
	C203.101,29.142,202.064,28.105,200.8,28.105z M191.051,39.946v5.216h-3.067v-5.216c-0.913-0.531-1.532-1.508-1.532-2.642
	c0-1.693,1.371-3.065,3.066-3.065c1.688,0,3.065,1.372,3.065,3.065C192.583,38.436,191.961,39.414,191.051,39.946z M196.425,25.157
	l-0.006,2.949h-13.802v-2.766l-0.01-0.173c-0.041-0.434-0.311-4.263,3.047-5.091c0.015-0.003,1.381-0.326,3.375-0.334v0.022
	c0.166-0.008,0.32-0.01,0.482-0.011c0.162,0.001,0.322,0.003,0.494,0.011v-0.022c1.992,0.004,3.358,0.331,3.375,0.336
	C196.737,20.904,196.468,24.732,196.425,25.157z"/>
<path fill="#FFFFFF" d="M187.983,45.962h3.067v-0.8h-3.067V45.962z M182.617,25.34l-0.01-0.173
	c-0.002-0.027-0.006-0.068-0.009-0.121c-0.026,0.461-0.001,0.809,0.009,0.921l0.01,0.173V25.34z M175.9,30.404v0.8
	c0-1.262,0.85-2.299,2.117-2.299h1.15v-0.8h-1.15C176.75,28.105,175.9,29.142,175.9,30.404z M187.983,39.946
	c-0.79-0.459-1.357-1.253-1.497-2.191c-0.014,0.117-0.035,0.229-0.035,0.351c0,1.134,0.619,2.11,1.532,2.642V39.946z M200.8,28.105
	h-0.934v0.8h0.934c1.265,0,2.301,1.037,2.301,2.299v-0.8C203.101,29.142,202.064,28.105,200.8,28.105z M191.051,39.946v0.8
	c0.91-0.532,1.532-1.511,1.532-2.642c0-0.12-0.021-0.233-0.036-0.35C192.407,38.692,191.837,39.485,191.051,39.946z M194.211,16.728
	c-0.085-0.021-1.984-0.478-4.693-0.423c-2.707-0.056-4.611,0.402-4.689,0.422c-4.782,1.178-5.803,5.716-5.684,8.326
	c0.112-2.65,1.36-6.462,5.684-7.526c0.079-0.02,1.982-0.479,4.689-0.422c2.709-0.053,4.608,0.402,4.693,0.424
	c4.318,1.063,5.565,4.877,5.679,7.527C200.007,22.446,198.987,17.905,194.211,16.728z M196.425,25.157l-0.006,2.949h-13.802v0.8
	h13.802l0.007-2.948c0.011-0.112,0.036-0.457,0.01-0.918C196.432,25.091,196.429,25.13,196.425,25.157z"/>
<path fill-opacity="0.15" d="M236.802,26.723c1.71,0,3.101,1.39,3.101,3.099l-0.001,18.984c0,1.708-1.391,3.099-3.101,3.099h-18.783
	c-1.663,0-2.918-1.333-2.918-3.099l0.001-18.984c0-1.767,1.254-3.099,2.918-3.099H236.802z"/>
<path fill-opacity="0.3" d="M218.199,28.723c-1.265,0-2.299,0.85-2.299,2.117v18.966c0,1.265,0.85,2.299,2.117,2.299H236.8
	c1.265,0,2.301-1.034,2.301-2.299V31.023c0-1.265-1.034-2.301-2.299-2.301H218.199z"/>
<linearGradient id="SVGID_16_" gradientUnits="userSpaceOnUse" x1="227.041" y1="25.2637" x2="227.041" y2="48.646" gradientTransform="matrix(1 0 0 1 0.459 2.459)">
	<stop  offset="0" style="stop-color:#FFFFFF"/>
	<stop  offset="1" style="stop-color:#BFBFBF"/>
</linearGradient>
<path fill="url(#SVGID_16_)" d="M218.199,27.723c-1.265,0-2.299,0.85-2.299,2.117v18.966c0,1.265,0.85,2.299,2.117,2.299H236.8
	c1.265,0,2.301-1.034,2.301-2.299V30.023c0-1.265-1.034-2.301-2.299-2.301H218.199z"/>
<g>
	<rect x="325" y="1" fill="none" width="96" height="96"/>
</g>
<path fill-opacity="0.4" d="M413,49c0,29.635-10.363,40-40,40c-29.635,0-40-10.365-40-40c0-29.633,10.365-40,40-40
	C402.637,9,413,19.367,413,49z"/>
<linearGradient id="SVGID_17_" gradientUnits="userSpaceOnUse" x1="364.6602" y1="65.2295" x2="364.6602" y2="-12.6436" gradientTransform="matrix(1 0 0 -1 8.3398 72.04)">
	<stop  offset="0" style="stop-color:#AFB1B3"/>
	<stop  offset="1" style="stop-color:#4A4B4D"/>
</linearGradient>
<path fill="url(#SVGID_17_)" d="M413,48c0,29.635-10.363,40-40,40c-29.635,0-40-10.365-40-40c0-29.633,10.365-40,40-40
	C402.637,8,413,18.367,413,48z"/>
<linearGradient id="SVGID_18_" gradientUnits="userSpaceOnUse" x1="395.5" y1="87.8896" x2="395.5" y2="8.1118">
	<stop  offset="0" style="stop-color:#000000"/>
	<stop  offset="0.6008" style="stop-color:#3D3E40"/>
	<stop  offset="1" style="stop-color:#272829"/>
</linearGradient>
<path fill="url(#SVGID_18_)" d="M378,87.89C403.807,86.717,413,75.9,413,48c0-27.904-9.193-38.718-35-39.889V87.89z"/>
<path fill="#FFFFFF" fill-opacity="0.3" d="M379,8.17c-0.334-0.02-0.66-0.043-1-0.059V87.89c0.34-0.017,0.666-0.039,1-0.06V8.17z"/>
<path fill-opacity="0.05" d="M378,87.89V8.111c-0.656-0.028-1.322-0.053-2-0.069v79.917C376.678,87.941,377.344,87.918,378,87.89z"
	/>
<path fill-opacity="0.2" d="M378,87.89V8.111c-0.328-0.014-0.666-0.022-1-0.034v79.847C377.334,87.912,377.672,87.903,378,87.89z"/>
<path fill-opacity="0.2" d="M398.587,75.124c-0.55,0-1-0.45-1-1v-8.752c0-0.55,0.45-1,1-1h1c0.55,0,1,0.45,1,1v8.752
	c0,0.55-0.45,1-1,1H398.587z"/>
<path fill-opacity="0.2" d="M388.587,75.124c-0.55,0-1-0.45-1-1v-8.752c0-0.55,0.45-1,1-1h5c0.55,0,1,0.45,1,1v8.752
	c0,0.55-0.45,1-1,1H388.587z"/>
<path fill-opacity="0.2" d="M366.34,57.678l-19.56,11.084c-0.957,0.543-0.957,1.43,0,1.973l19.56,11.082
	c0.956,0.543,1.739,0.086,1.739-1.014v-5.68h14.358c0.551,0,1-0.449,1-1v-8.751c0-0.55-0.449-1-1-1h-14.358v-5.68
	C368.079,57.592,367.296,57.137,366.34,57.678z"/>
<linearGradient id="SVGID_19_" gradientUnits="userSpaceOnUse" x1="31.8862" y1="-292.7832" x2="7.2905" y2="-292.7832" gradientTransform="matrix(4.489659e-011 -1 -1 -4.489659e-011 71.1162 88.2324)">
	<stop  offset="0" style="stop-color:#FFFFFF"/>
	<stop  offset="0.0307" style="stop-color:#FFFFFF"/>
	<stop  offset="0.4969" style="stop-color:#FAFCEF"/>
	<stop  offset="1" style="stop-color:#D0CBC5"/>
</linearGradient>
<path fill="url(#SVGID_19_)" d="M367.229,57.692v5.68h14.358c0.55,0,1,0.45,1,1v8.752c0,0.55-0.45,1-1,1h-14.358v5.679
	c0,1.1-0.783,1.557-1.74,1.014L345.93,69.734c-0.957-0.543-0.957-1.43,0-1.973l19.559-11.084
	C366.445,56.137,367.229,56.592,367.229,57.692z"/>
<path fill-opacity="0.05" d="M365.488,56.678L345.93,67.762c-0.957,0.543-0.957,1.43,0,1.973l19.559,11.082
	c0.845,0.479,1.552,0.178,1.707-0.656l-18.401-10.426c-0.957-0.543-0.957-1.43,0-1.973l18.401-10.428
	C367.04,56.502,366.333,56.2,365.488,56.678z"/>
<path fill-opacity="0.2" d="M365.488,56.678L345.93,67.762c-0.957,0.543-0.957,1.43,0,1.973l19.559,11.082
	c0.068,0.039,0.137,0.065,0.203,0.095c0.236-0.143,0.406-0.395,0.474-0.751l-18.401-10.426c-0.957-0.543-0.957-1.43,0-1.973
	l18.401-10.428c-0.065-0.355-0.237-0.607-0.473-0.75C365.625,56.613,365.557,56.639,365.488,56.678z"/>
<path fill-opacity="0.2" d="M346.258,68.748c0.034-0.031,0.088-0.072,0.166-0.115l19.559-11.084c0.097-0.055,0.171-0.08,0.219-0.092
	c0.016,0.047,0.027,0.124,0.027,0.235v5.68v1h1h14.359v8.752h-14.359h-1v1v5.679c0,0.11-0.016,0.188-0.028,0.234
	c-0.048-0.011-0.122-0.035-0.219-0.092l-19.56-11.082C346.346,68.82,346.292,68.78,346.258,68.748 M345.212,68.748
	c0,0.357,0.239,0.715,0.718,0.986l19.559,11.082c0.957,0.543,1.74,0.086,1.74-1.014v-5.68h14.358c0.55,0,1-0.449,1-1v-8.751
	c0-0.55-0.45-1-1-1h-14.358v-5.68c0-1.101-0.783-1.556-1.74-1.015L345.93,67.762C345.451,68.033,345.212,68.391,345.212,68.748
	L345.212,68.748z"/>
<linearGradient id="SVGID_20_" gradientUnits="userSpaceOnUse" x1="214.9063" y1="373.0293" x2="204.1543" y2="373.0293" gradientTransform="matrix(-1.346898e-010 1 1 1.346898e-010 25.0576 -140.7363)">
	<stop  offset="0" style="stop-color:#D0CBC5"/>
	<stop  offset="0.5031" style="stop-color:#FAFCEF"/>
	<stop  offset="0.9693" style="stop-color:#FFFFFF"/>
	<stop  offset="1" style="stop-color:#FFFFFF"/>
</linearGradient>
<path fill="url(#SVGID_20_)" d="M397.587,74.124c-0.55,0-1-0.45-1-1v-8.752c0-0.55,0.45-1,1-1h1c0.55,0,1,0.45,1,1v8.752
	c0,0.55-0.45,1-1,1H397.587z"/>
<linearGradient id="SVGID_21_" gradientUnits="userSpaceOnUse" x1="214.9063" y1="365.0293" x2="204.1543" y2="365.0293" gradientTransform="matrix(-1.346898e-010 1 1 1.346898e-010 25.0576 -140.7363)">
	<stop  offset="0" style="stop-color:#D0CBC5"/>
	<stop  offset="0.5031" style="stop-color:#FAFCEF"/>
	<stop  offset="0.9693" style="stop-color:#FFFFFF"/>
	<stop  offset="1" style="stop-color:#FFFFFF"/>
</linearGradient>
<path fill="url(#SVGID_21_)" d="M387.587,74.124c-0.55,0-1-0.45-1-1v-8.752c0-0.55,0.45-1,1-1h5c0.55,0,1,0.45,1,1v8.752
	c0,0.55-0.45,1-1,1H387.587z"/>
<g>
	<path fill-opacity="0.2" d="M392.587,63.372h-5c-0.55,0-1,0.45-1,1v8.751c0,0.551,0.45,1,1,1h5c0.55,0,1-0.449,1-1v-8.751
		C393.587,63.822,393.137,63.372,392.587,63.372z M392.587,73.124h-5v-8.753h5V73.124z"/>
</g>
<g>
	<path fill-opacity="0.2" d="M398.587,63.372h-1c-0.55,0-1,0.45-1,1v8.751c0,0.551,0.45,1,1,1h1c0.55,0,1-0.449,1-1v-8.751
		C399.587,63.822,399.137,63.372,398.587,63.372z M398.587,73.124h-1v-8.753h1V73.124z"/>
</g>
<linearGradient id="SVGID_22_" gradientUnits="userSpaceOnUse" x1="364.6602" y1="63.7871" x2="364.6602" y2="-15.4575" gradientTransform="matrix(1 0 0 -1 8.3398 72.04)">
	<stop  offset="0" style="stop-color:#FFFFFF"/>
	<stop  offset="1" style="stop-color:#FFFFFF;stop-opacity:0"/>
</linearGradient>
<path fill="url(#SVGID_22_)" fill-opacity="0.25" d="M373,8c-29.635,0-40,10.367-40,40c0,29.635,10.365,40,40,40
	c29.637,0,40-10.365,40-40C413,18.367,402.637,8,373,8z M373,87c-29.158,0-39-9.842-39-39s9.842-39,39-39s39,9.842,39,39
	S402.158,87,373,87z"/>
<path fill-opacity="0.15" d="M346.018,51.904c-1.663,0-2.918-1.333-2.918-3.099V30.404c0-1.767,1.254-3.099,2.918-3.099h0.35v-1.879
	c-0.248-2.635,0.736-8.114,6.27-9.478c0.076-0.019,1.864-0.449,4.426-0.449c0.154,0,0.311,0.001,0.471,0.005
	c0.125-0.004,0.277-0.004,0.43-0.004c2.635,0,4.428,0.448,4.447,0.452c5.518,1.359,6.504,6.839,6.254,9.547l0.003,1.806h0.134
	c1.71,0,3.101,1.39,3.101,3.099v18.401c0,1.708-1.391,3.099-3.101,3.099H346.018z M358.25,44.362v-4.417
	c0-0.284,0.15-0.549,0.396-0.69c0.713-0.416,1.137-1.145,1.137-1.95c0-1.25-1.017-2.266-2.266-2.266
	c-1.25,0-2.268,1.016-2.268,2.266c0,0.808,0.424,1.537,1.136,1.95c0.247,0.144,0.397,0.407,0.397,0.691v4.416H358.25z
	 M363.62,27.306l0.005-2.151c0.04-0.438,0.277-3.631-2.436-4.298c-0.027-0.008-0.052-0.016-0.076-0.023l0,0
	c-0.02,0-1.202-0.27-2.937-0.291c-0.058,0.014-0.117,0.021-0.177,0.021c-0.011,0-0.02,0-0.03-0.001
	c-0.161-0.007-0.312-0.008-0.465-0.01c-0.142,0.002-0.286,0.003-0.441,0.01c-0.013,0-0.024,0.001-0.036,0.001
	c-0.062,0-0.123-0.008-0.182-0.021c-1.707,0.024-2.88,0.282-3.012,0.312c-2.697,0.666-2.467,3.87-2.432,4.234l0.012,0.21
	l0.002,2.006L363.62,27.306L363.62,27.306z"/>
<path fill-opacity="0.3" d="M368.8,28.905h-0.934v-2.679c0.234-2.527-0.647-7.466-5.655-8.698c-0.085-0.021-1.984-0.479-4.693-0.424
	c-2.707-0.056-4.611,0.402-4.689,0.422c-5.016,1.234-5.896,6.173-5.66,8.7v2.679h-1.15c-1.268,0-2.117,1.037-2.117,2.299v18.401
	c0,1.265,0.85,2.299,2.117,2.299H368.8c1.265,0,2.301-1.034,2.301-2.299V31.204C371.101,29.942,370.064,28.905,368.8,28.905z
	 M359.051,40.746v5.216h-3.067v-5.215c-0.913-0.531-1.532-1.509-1.532-2.643c0-1.693,1.371-3.065,3.066-3.065
	c1.688,0,3.065,1.372,3.065,3.065C360.583,39.235,359.961,40.214,359.051,40.746z M364.425,25.958l-0.006,2.948h-13.802v-2.766
	l-0.01-0.173c-0.041-0.435-0.311-4.263,3.047-5.091c0.015-0.003,1.381-0.325,3.375-0.334v0.022c0.166-0.008,0.32-0.01,0.482-0.011
	c0.162,0.001,0.322,0.003,0.494,0.011v-0.022c1.992,0.005,3.358,0.331,3.375,0.337C364.737,21.704,364.468,25.532,364.425,25.958z"
	/>
<linearGradient id="SVGID_23_" gradientUnits="userSpaceOnUse" x1="349.1602" y1="20.9355" x2="349.1602" y2="55.7407" gradientTransform="matrix(1 0 0 -1 8.3398 72.04)">
	<stop  offset="0" style="stop-color:#D0CBC5"/>
	<stop  offset="0.5031" style="stop-color:#FAFCEF"/>
	<stop  offset="0.9693" style="stop-color:#FFFFFF"/>
	<stop  offset="1" style="stop-color:#FFFFFF"/>
</linearGradient>
<path fill="url(#SVGID_23_)" d="M368.8,28.105h-0.934v-2.679c0.234-2.527-0.647-7.466-5.655-8.699
	c-0.085-0.021-1.984-0.478-4.693-0.423c-2.707-0.056-4.611,0.402-4.689,0.422c-5.016,1.234-5.896,6.173-5.66,8.7v2.679h-1.15
	c-1.268,0-2.117,1.036-2.117,2.299v18.401c0,1.265,0.85,2.299,2.117,2.299H368.8c1.265,0,2.301-1.034,2.301-2.299V30.404
	C371.101,29.142,370.064,28.105,368.8,28.105z M359.051,39.946v5.216h-3.067v-5.216c-0.913-0.531-1.532-1.508-1.532-2.642
	c0-1.693,1.371-3.065,3.066-3.065c1.688,0,3.065,1.372,3.065,3.065C360.583,38.436,359.961,39.414,359.051,39.946z M364.425,25.157
	l-0.006,2.949h-13.802v-2.766l-0.01-0.173c-0.041-0.434-0.311-4.263,3.047-5.091c0.015-0.003,1.381-0.326,3.375-0.334v0.022
	c0.166-0.008,0.32-0.01,0.482-0.011c0.162,0.001,0.322,0.003,0.494,0.011v-0.022c1.992,0.004,3.358,0.331,3.375,0.336
	C364.737,20.904,364.468,24.732,364.425,25.157z"/>
<path fill="#FFFFFF" d="M355.983,45.962h3.067v-0.8h-3.067V45.962z M350.617,25.34l-0.01-0.173
	c-0.002-0.027-0.006-0.068-0.009-0.121c-0.026,0.461-0.001,0.809,0.009,0.921l0.01,0.173V25.34z M343.9,30.404v0.8
	c0-1.262,0.85-2.299,2.117-2.299h1.15v-0.8h-1.15C344.75,28.105,343.9,29.142,343.9,30.404z M355.983,39.946
	c-0.79-0.459-1.357-1.253-1.497-2.191c-0.014,0.117-0.035,0.229-0.035,0.351c0,1.134,0.619,2.11,1.532,2.642V39.946z M368.8,28.105
	h-0.934v0.8h0.934c1.265,0,2.301,1.037,2.301,2.299v-0.8C371.101,29.142,370.064,28.105,368.8,28.105z M359.051,39.946v0.8
	c0.91-0.532,1.532-1.511,1.532-2.642c0-0.12-0.021-0.233-0.036-0.35C360.407,38.692,359.837,39.485,359.051,39.946z M362.211,16.728
	c-0.085-0.021-1.984-0.478-4.693-0.423c-2.707-0.056-4.611,0.402-4.689,0.422c-4.782,1.178-5.803,5.716-5.684,8.326
	c0.112-2.65,1.36-6.462,5.684-7.526c0.079-0.02,1.982-0.479,4.689-0.422c2.709-0.053,4.608,0.402,4.693,0.424
	c4.318,1.063,5.565,4.877,5.679,7.527C368.007,22.446,366.987,17.905,362.211,16.728z M364.425,25.157l-0.006,2.949h-13.802v0.8
	h13.802l0.007-2.948c0.011-0.112,0.036-0.457,0.01-0.918C364.432,25.091,364.429,25.13,364.425,25.157z"/>
<path fill-opacity="0.15" d="M404.802,26.723c1.71,0,3.101,1.39,3.101,3.099l-0.001,18.984c0,1.708-1.391,3.099-3.101,3.099h-18.783
	c-1.663,0-2.918-1.333-2.918-3.099l0.001-18.984c0-1.767,1.254-3.099,2.918-3.099H404.802z"/>
<path fill-opacity="0.3" d="M386.199,28.723c-1.265,0-2.299,0.85-2.299,2.117v18.966c0,1.265,0.85,2.299,2.117,2.299H404.8
	c1.265,0,2.301-1.034,2.301-2.299V31.023c0-1.265-1.034-2.301-2.299-2.301H386.199z"/>
<linearGradient id="SVGID_24_" gradientUnits="userSpaceOnUse" x1="395.041" y1="25.2637" x2="395.041" y2="48.646" gradientTransform="matrix(1 0 0 1 0.459 2.459)">
	<stop  offset="0" style="stop-color:#FFFFFF"/>
	<stop  offset="0.0307" style="stop-color:#FFFFFF"/>
	<stop  offset="0.4969" style="stop-color:#FAFCEF"/>
	<stop  offset="1" style="stop-color:#D0CBC5"/>
</linearGradient>
<path fill="url(#SVGID_24_)" d="M386.199,27.723c-1.265,0-2.299,0.85-2.299,2.117v18.966c0,1.265,0.85,2.299,2.117,2.299H404.8
	c1.265,0,2.301-1.034,2.301-2.299V30.023c0-1.265-1.034-2.301-2.299-2.301H386.199z"/>
</svg>
